HIERARCHY
ROOT Pelvis
{
	OFFSET -0.217368 -24.078917 2.858379
	CHANNELS 6 Xposition Yposition Zposition Zrotation Yrotation Xrotation 
	JOINT Left_hip
	{
		OFFSET 5.858135 -8.228005 -1.766408
		CHANNELS 3 Zrotation Yrotation Xrotation
		JOINT Left_knee
		{
			OFFSET 4.345143 -38.646942 0.803700
			CHANNELS 3 Zrotation Yrotation Xrotation
			JOINT Left_ankle
			{
				OFFSET -1.479033 -42.687447 -3.742800
				CHANNELS 3 Zrotation Yrotation Xrotation
				JOINT Left_foot
				{
					OFFSET 4.105436 -6.028605 12.204244
					CHANNELS 3 Zrotation Yrotation Xrotation
					End Site
					{
						OFFSET 0.000000 0.000000 0.000000
					}
				}
			}
		}
	}
	JOINT Right_hip
	{
		OFFSET -6.030973 -9.051328 -1.354253
		CHANNELS 3 Zrotation Yrotation Xrotation
		JOINT Right_knee
		{
			OFFSET -4.325663 -38.368790 -0.484304
			CHANNELS 3 Zrotation Yrotation Xrotation
			JOINT Right_ankle
			{
				OFFSET 1.905555 -42.004566 -3.456167
				CHANNELS 3 Zrotation Yrotation Xrotation
				JOINT Right_foot
				{
					OFFSET -3.483987 -6.210554 13.032330
					CHANNELS 3 Zrotation Yrotation Xrotation
					End Site
					{
						OFFSET 0.000000 0.000000 0.000000
					}
				}
			}
		}
	}
	JOINT Spine1
	{
		OFFSET 0.443945 12.440353 -3.838522
		CHANNELS 3 Zrotation Yrotation Xrotation
		JOINT Spine2
		{
			OFFSET 0.448844 13.795640 2.682033
			CHANNELS 3 Zrotation Yrotation Xrotation
			JOINT Spine3
			{
				OFFSET -0.226460 5.603239 0.285504
				CHANNELS 3 Zrotation Yrotation Xrotation
				JOINT Neck
				{
					OFFSET -1.339018 21.163553 -3.346758
					CHANNELS 3 Zrotation Yrotation Xrotation
					JOINT Head
					{
						OFFSET 1.011321 8.893734 5.040987
						CHANNELS 3 Zrotation Yrotation Xrotation
						End Site
						{
							OFFSET 0.000000 0.000000 0.000000
						}
					}
				}
				JOINT Left_collar
				{
					OFFSET 7.170247 11.399971 -1.889817
					CHANNELS 3 Zrotation Yrotation Xrotation
					JOINT Left_shoulder
					{
						OFFSET 12.292140 4.520507 -1.904600
						CHANNELS 3 Zrotation Yrotation Xrotation
						JOINT Left_elbow
						{
							OFFSET 25.533188 -1.564902 -2.294648
							CHANNELS 3 Zrotation Yrotation Xrotation
							JOINT Left_wrist
							{
								OFFSET 26.570929 1.269810 -0.737473
								CHANNELS 3 Zrotation Yrotation Xrotation
								JOINT Left_palm
								{
									OFFSET 8.669054 -1.063602 -1.559429
									CHANNELS 3 Zrotation Yrotation Xrotation
									End Site
									{
										OFFSET 0.000000 0.000000 0.000000
									}
								}
							}
						}
					}
				}
				JOINT Right_collar
				{
					OFFSET -8.295364 11.247234 -2.370738
					CHANNELS 3 Zrotation Yrotation Xrotation
					JOINT Right_shoulder
					{
						OFFSET -11.322830 4.685326 -0.847207
						CHANNELS 3 Zrotation Yrotation Xrotation
						JOINT Right_elbow
						{
							OFFSET -26.012751 -1.436928 -3.126872
							CHANNELS 3 Zrotation Yrotation Xrotation
							JOINT Right_wrist
							{
								OFFSET -26.910841 0.679372 -0.602677
								CHANNELS 3 Zrotation Yrotation Xrotation
								JOINT Right_palm
								{
									OFFSET -8.875370 -0.865157 -1.010708
									CHANNELS 3 Zrotation Yrotation Xrotation
									End Site
									{
										OFFSET 0.000000 0.000000 0.000000
									}
								}
							}
						}
					}
				}
			}
		}
	}
}
MOTION
Frames: 5
Frame Time: 0.016667
6.919169 31.434931 -16.686569 -1.709963 -20.643843 7.562373 9.974356 -0.592110 -90.958389 -11.599900 12.882974 103.999777 16.942310 37.288036 -12.284929 0.000000 0.000000 0.000000 -8.266811 3.631384 -96.284837 12.455298 -13.720830 106.056830 -12.466309 -31.183667 -5.858070 0.000000 0.000000 0.000000 -2.793248 -1.347532 72.264301 3.716391 1.024017 -46.890173 -9.932394 20.655480 18.451700 21.983401 -4.923652 -39.607192 0.000000 0.000000 0.000000 46.724475 -26.087596 2.024052 64.263950 -19.067091 -5.684824 -1.036767 6.795460 -0.312270 0.000000 0.000000 0.000000 0.000000 0.000000 0.000000 -22.382375 19.202221 4.655674 -42.087720 30.612238 -10.414401 -3.689796 -6.872739 0.092163 0.000000 0.000000 0.000000 0.000000 0.000000 0.000000 
6.912648 33.516953 -16.988155 -2.008685 -20.441162 8.321435 10.150264 -0.406735 -88.824932 -11.505321 11.876301 100.220049 16.511502 36.407345 -12.542146 0.000000 0.000000 0.000000 -7.998096 3.791024 -94.264470 12.728712 -13.237836 102.392462 -12.323859 -30.716297 -5.470651 0.000000 0.000000 0.000000 -2.611928 -1.442973 70.835683 3.646074 0.988444 -46.194395 -9.769064 20.593678 18.087384 22.513742 -4.468464 -41.922903 0.000000 0.000000 0.000000 46.415203 -26.608116 2.024769 65.174538 -19.769705 -6.297860 -2.371214 6.123436 -0.359807 0.000000 0.000000 0.000000 0.000000 0.000000 0.000000 -21.570306 19.679361 4.797972 -42.578862 31.572699 -11.010862 -2.481478 -5.485560 0.005605 0.000000 0.000000 0.000000 0.000000 0.000000 0.000000 
6.898768 36.019234 -17.232090 -2.052286 -20.327196 8.982350 9.526465 -0.964792 -86.251261 -10.859655 10.102763 95.888838 15.338316 34.047031 -13.632617 0.000000 0.000000 0.000000 -7.525407 4.108654 -91.804970 12.697918 -12.272898 98.394644 -12.258153 -30.360976 -4.770658 0.000000 0.000000 0.000000 -2.142546 -1.746077 69.735883 3.234067 0.989302 -45.855139 -9.549435 20.037883 17.818089 22.289512 -4.483699 -41.596856 0.000000 0.000000 0.000000 45.306904 -27.393947 2.134092 66.323874 -20.617796 -7.070895 -4.313503 5.192421 -0.404579 0.000000 0.000000 0.000000 0.000000 0.000000 0.000000 -20.903855 19.865354 4.888210 -43.546576 33.293746 -12.137972 -1.589560 -4.610445 -0.042019 0.000000 0.000000 0.000000 0.000000 0.000000 0.000000 
6.889303 39.210236 -17.345442 -2.341198 -20.099493 9.607063 8.429642 -1.842273 -82.239546 -9.335736 7.318095 90.691284 14.585543 32.168235 -13.529797 0.000000 0.000000 0.000000 -6.310450 4.980970 -87.990398 11.582023 -9.828706 93.654515 -11.311639 -28.051861 -4.880911 0.000000 0.000000 0.000000 -1.304734 -2.255728 67.791523 2.864627 0.992339 -45.554962 -9.101423 19.976908 18.317733 21.680890 -4.007145 -42.622990 0.000000 0.000000 0.000000 42.966463 -28.675023 2.439018 67.552414 -22.489049 -8.696129 -6.076742 4.572249 -0.438081 0.000000 0.000000 0.000000 0.000000 0.000000 0.000000 -19.026974 21.070609 5.274811 -44.587395 36.177857 -13.964189 -0.718892 -3.790758 -0.076229 0.000000 0.000000 0.000000 0.000000 0.000000 0.000000 
6.830448 42.317818 -17.356663 -2.661570 -19.807606 10.207214 7.758608 -2.271252 -78.613439 -7.817384 4.987644 85.752962 13.665460 29.745294 -13.003530 0.000000 0.000000 0.000000 -5.551399 5.350173 -84.399946 11.056271 -8.422441 88.836962 -10.969808 -27.022997 -3.941550 0.000000 0.000000 0.000000 -0.654771 -2.619241 66.193998 2.126044 0.987379 -44.551631 -8.629512 19.384206 18.374153 21.171663 -3.813046 -42.739172 0.000000 0.000000 0.000000 39.522059 -29.833922 3.006473 69.655709 -25.155252 -11.219402 -8.471015 4.009515 -0.484001 0.000000 0.000000 0.000000 0.000000 0.000000 0.000000 -17.178590 21.785969 5.608418 -45.818295 38.785083 -15.800012 0.308849 -4.532394 -0.157420 0.000000 0.000000 0.000000 0.000000 0.000000 0.000000 
